<svg xmlns="http://www.w3.org/2000/svg" xmlns:xlink="http://www.w3.org/1999/xlink" xmlns:lucid="lucid" width="1760" height="1360"><g transform="translate(0 0)" lucid:page-tab-id="0_0"><path d="M240 446a6 6 0 0 1 6-6h1248a6 6 0 0 1 6 6v188a6 6 0 0 1-6 6H246a6 6 0 0 1-6-6z" stroke="#d7987d" stroke-width="2" fill="#fff"/><path d="M800 486a6 6 0 0 1 6-6h148a6 6 0 0 1 6 6v108a6 6 0 0 1-6 6H806a6 6 0 0 1-6-6z" stroke="#d7987d" stroke-width="2" fill="#f9ded4"/><use xlink:href="#a" transform="matrix(1,0,0,1,812,492) translate(13.074999999999996 29.4)"/><use xlink:href="#b" transform="matrix(1,0,0,1,812,492) translate(71.975 29.4)"/><use xlink:href="#c" transform="matrix(1,0,0,1,812,492) translate(25.549999999999997 51)"/><use xlink:href="#d" transform="matrix(1,0,0,1,812,492) translate(30.075000000000003 72.60000000000001)"/><use xlink:href="#e" transform="matrix(1,0,0,1,812,492) translate(83.025 72.60000000000001)"/><path d="M1080 496a6 6 0 0 1 6-6h148a6 6 0 0 1 6 6v88a6 6 0 0 1-6 6h-148a6 6 0 0 1-6-6z" stroke="#d7987d" stroke-width="2" fill="#f9ded4"/><use xlink:href="#f" transform="matrix(1,0,0,1,1092,502) translate(19.049999999999997 40.525)"/><use xlink:href="#g" transform="matrix(1,0,0,1,1092,502) translate(57 40.525)"/><path d="M280 486a6 6 0 0 1 6-6h148a6 6 0 0 1 6 6v108a6 6 0 0 1-6 6H286a6 6 0 0 1-6-6z" stroke="#d7987d" stroke-width="2" fill="#f9ded4"/><path d="M296 480v120m128-120v120" stroke="#d7987d" stroke-width="2" fill="none"/><use xlink:href="#h" transform="matrix(1,0,0,1,305,485) translate(28.049999999999997 47.8)"/><use xlink:href="#i" transform="matrix(1,0,0,1,305,485) translate(27.05 69.4)"/><path d="M1300 496a6 6 0 0 1 6-6h148a6 6 0 0 1 6 6v88a6 6 0 0 1-6 6h-148a6 6 0 0 1-6-6z" stroke="#d7987d" stroke-width="2" fill="#f9ded4"/><use xlink:href="#j" transform="matrix(1,0,0,1,1312,502) translate(11.049999999999997 31.025)"/><use xlink:href="#k" transform="matrix(1,0,0,1,1312,502) translate(74.95 31.025)"/><use xlink:href="#l" transform="matrix(1,0,0,1,1312,502) translate(45.55 52.625)"/><path d="M625.46 485.44A9.42 9.42 0 0 1 634 480h72a9.42 9.42 0 0 1 8.54 5.44l22.92 49.12a12.86 12.86 0 0 1 0 10.88l-22.92 49.12A9.42 9.42 0 0 1 706 600h-72a9.42 9.42 0 0 1-8.54-5.44l-22.92-49.12a12.86 12.86 0 0 1 0-10.88z" stroke="#d7987d" stroke-width="2" fill="#f9ded4"/><use xlink:href="#m" transform="matrix(1,0,0,1,605,485) translate(13.529999999999996 48.775)"/><use xlink:href="#n" transform="matrix(1,0,0,1,605,485) translate(56.48 48.775)"/><use xlink:href="#o" transform="matrix(1,0,0,1,605,485) translate(27.529999999999994 70.375)"/><use xlink:href="#p" transform="matrix(1,0,0,1,605,485) translate(51.529999999999994 70.375)"/><path d="M974.08 541h-12.1v-2h12.1zm86.45 0h-10.6v-2h10.6z" stroke="#92c3be" stroke-width=".05" fill="#92c3be"/><path d="M962 541h-1.04v-2H962z" fill="#92c3be"/><path d="M962.02 541.02h-1.08V539h1.08zm-1.03-2V541h.97V539z" stroke="#92c3be" stroke-width=".05" fill="#92c3be"/><path d="M1075.8 540l-14.27 4.64v-9.28z" fill="#92c3be"/><path d="M1079.04 540l-18.5 6v-12zm-16.5 3.26l10.02-3.26-10.03-3.26z" stroke="#92c3be" stroke-width=".05" fill="#92c3be"/><use xlink:href="#q" transform="matrix(1,0,0,1,974.0750000000002,529.2000000000002) translate(0 14.4)"/><use xlink:href="#e" transform="matrix(1,0,0,1,974.0750000000002,529.2000000000002) translate(52.95 14.4)"/><path d="M1241.96 540h38.57" stroke="#92c3be" stroke-width="2" stroke-linejoin="round" fill="none"/><path d="M1242 541h-1.04v-2h1.03z" stroke="#92c3be" stroke-width=".05" fill="#92c3be"/><path d="M1295.8 540l-14.27 4.64v-9.28z" stroke="#92c3be" stroke-width="2" fill="#92c3be"/><path d="M740.67 540h39.86" stroke="#92c3be" stroke-width="2" stroke-linejoin="round" fill="none"/><path d="M740.7 541h-1.07l.04-1-.04-1h1.07z" stroke="#92c3be" stroke-width=".05" fill="#92c3be"/><path d="M795.8 540l-14.27 4.64v-9.28z" stroke="#92c3be" stroke-width="2" fill="#92c3be"/><path d="M548.74 531.16l5.2 1.7 5.23 1.45 5.42 1.3 5.75 1.08 6.25.92 5.36.57-.2 1.98-5.4-.56-6.35-.94-5.83-1.12-5.5-1.3-5.3-1.47-5.3-1.72-5.47-2.04-1.7-.7h5.52zm-98.72-32.83l7.9.5 7 .73 6.33.93 5.84 1.1 5.5 1.3 5.3 1.48 5.28 1.72 5.5 2.04 1.32.56h-5.55l-1.92-.72-5.2-1.7-5.23-1.45-5.42-1.27-5.76-1.1-6.25-.9-6.92-.74-7.8-.5-8.03-.15.04-2z" stroke="#92c3be" stroke-width=".05" fill="#92c3be"/><path d="M441.98 498.17l-.04 2-1-.02v-2z" fill="#92c3be"/><path d="M442 498.15l-.03 2.05-1.06-.03v-2.05zm-1.04 1.97l.96.02.04-1.95-1-.03z" stroke="#92c3be" stroke-width=".05" fill="#92c3be"/><path d="M597.1 539.85l-14.46 4 .42-9.28z" fill="#92c3be"/><path d="M600.33 540l-18.76 5.16.55-12zm-16.63 2.5l10.16-2.8L584 536z" stroke="#92c3be" stroke-width=".05" fill="#92c3be"/><g><use xlink:href="#r" transform="matrix(1,0,0,1,463.22039754575377,508.69980167957345) translate(0 14.4)"/></g><path d="M496.84 569.92l-5.76 1.87-5.67 1.57-5.8 1.37-6.17 1.17-6.7 1-7.43.78-8.46.52-8.83.18-.03-2 8.8-.17 8.36-.52 7.35-.77 6.6-.96 6.1-1.16 5.73-1.35 5.6-1.56.86-.27h6.34zm85.1-28.17l-7.1.74-6.6.97-6.1 1.15-5.74 1.35-5.6 1.56-1.4.47h-6.28l1.36-.5 5.76-1.88 5.67-1.6 5.83-1.35 6.16-1.18 6.7-1 7.14-.74z" stroke="#92c3be" stroke-width=".05" fill="#92c3be"/><path d="M442.04 578.38l-1.05.03v-2l1-.02z" fill="#92c3be"/><path d="M442.06 578.4l-1.1.03v-2.05l1.06-.02zm-1.05-1.97v1.95l1-.02-.03-1.95z" stroke="#92c3be" stroke-width=".05" fill="#92c3be"/><path d="M597.1 540.13l-14.07 5.2-.38-9.25z" fill="#92c3be"/><path d="M600.33 540l-18.24 6.76-.5-12zm-16.36 3.93l9.9-3.67-10.16-2.84z" stroke="#92c3be" stroke-width=".05" fill="#92c3be"/><g><use xlink:href="#s" transform="matrix(1,0,0,1,471.72631032803736,547.9954608363714) translate(0 14.4)"/><use xlink:href="#t" transform="matrix(1,0,0,1,471.72631032803736,547.9954608363714) translate(61.95 14.4)"/></g><defs><path fill="#2d6b75" d="M212-179c-10-28-35-45-73-45-59 0-87 40-87 99 0 60 29 101 89 101 43 0 62-24 78-52l27 14C228-24 195 4 139 4 59 4 22-46 18-125c-6-104 99-153 187-111 19 9 31 26 39 46" id="u"/><path fill="#2d6b75" d="M114-163C36-179 61-72 57 0H25l-1-190h30c1 12-1 29 2 39 6-27 23-49 58-41v29" id="v"/><path fill="#2d6b75" d="M100-194c63 0 86 42 84 106H49c0 40 14 67 53 68 26 1 43-12 49-29l28 8c-11 28-37 45-77 45C44 4 14-33 15-96c1-61 26-98 85-98zm52 81c6-60-76-77-97-28-3 7-6 17-6 28h103" id="w"/><path fill="#2d6b75" d="M141-36C126-15 110 5 73 4 37 3 15-17 15-53c-1-64 63-63 125-63 3-35-9-54-41-54-24 1-41 7-42 31l-33-3c5-37 33-52 76-52 45 0 72 20 72 64v82c-1 20 7 32 28 27v20c-31 9-61-2-59-35zM48-53c0 20 12 33 32 33 41-3 63-29 60-74-43 2-92-5-92 41" id="x"/><path fill="#2d6b75" d="M59-47c-2 24 18 29 38 22v24C64 9 27 4 27-40v-127H5v-23h24l9-43h21v43h35v23H59v120" id="y"/><g id="a"><use transform="matrix(0.05,0,0,0.05,0,0)" xlink:href="#u"/><use transform="matrix(0.05,0,0,0.05,12.950000000000001,0)" xlink:href="#v"/><use transform="matrix(0.05,0,0,0.05,18.900000000000002,0)" xlink:href="#w"/><use transform="matrix(0.05,0,0,0.05,28.900000000000002,0)" xlink:href="#x"/><use transform="matrix(0.05,0,0,0.05,38.900000000000006,0)" xlink:href="#y"/><use transform="matrix(0.05,0,0,0.05,43.900000000000006,0)" xlink:href="#w"/></g><path fill="#2d6b75" d="M30-248c118-7 216 8 213 122C240-48 200 0 122 0H30v-248zM63-27c89 8 146-16 146-99s-60-101-146-95v194" id="z"/><path fill="#2d6b75" d="M100-194c62-1 85 37 85 99 1 63-27 99-86 99S16-35 15-95c0-66 28-99 85-99zM99-20c44 1 53-31 53-75 0-43-8-75-51-75s-53 32-53 75 10 74 51 75" id="A"/><path fill="#2d6b75" d="M143 0L79-87 56-68V0H24v-261h32v163l83-92h37l-77 82L181 0h-38" id="B"/><g id="b"><use transform="matrix(0.05,0,0,0.05,0,0)" xlink:href="#z"/><use transform="matrix(0.05,0,0,0.05,12.950000000000001,0)" xlink:href="#A"/><use transform="matrix(0.05,0,0,0.05,22.950000000000003,0)" xlink:href="#B"/><use transform="matrix(0.05,0,0,0.05,31.950000000000003,0)" xlink:href="#B"/><use transform="matrix(0.05,0,0,0.05,40.95,0)" xlink:href="#x"/></g><path fill="#2d6b75" d="M177-190C167-65 218 103 67 71c-23-6-38-20-44-43l32-5c15 47 100 32 89-28v-30C133-14 115 1 83 1 29 1 15-40 15-95c0-56 16-97 71-98 29-1 48 16 59 35 1-10 0-23 2-32h30zM94-22c36 0 50-32 50-73 0-42-14-75-50-75-39 0-46 34-46 75s6 73 46 73" id="C"/><path fill="#2d6b75" d="M84 4C-5 8 30-112 23-190h32v120c0 31 7 50 39 49 72-2 45-101 50-169h31l1 190h-30c-1-10 1-25-2-33-11 22-28 36-60 37" id="D"/><path fill="#2d6b75" d="M210-169c-67 3-38 105-44 169h-31v-121c0-29-5-50-35-48C34-165 62-65 56 0H25l-1-190h30c1 10-1 24 2 32 10-44 99-50 107 0 11-21 27-35 58-36 85-2 47 119 55 194h-31v-121c0-29-5-49-35-48" id="E"/><path fill="#2d6b75" d="M117-194c89-4 53 116 60 194h-32v-121c0-31-8-49-39-48C34-167 62-67 57 0H25l-1-190h30c1 10-1 24 2 32 11-22 29-35 61-36" id="F"/><path fill="#2d6b75" d="M135-143c-3-34-86-38-87 0 15 53 115 12 119 90S17 21 10-45l28-5c4 36 97 45 98 0-10-56-113-15-118-90-4-57 82-63 122-42 12 7 21 19 24 35" id="G"/><g id="c"><use transform="matrix(0.05,0,0,0.05,0,0)" xlink:href="#x"/><use transform="matrix(0.05,0,0,0.05,10,0)" xlink:href="#v"/><use transform="matrix(0.05,0,0,0.05,15.949999999999998,0)" xlink:href="#C"/><use transform="matrix(0.05,0,0,0.05,25.950000000000003,0)" xlink:href="#D"/><use transform="matrix(0.05,0,0,0.05,35.95,0)" xlink:href="#E"/><use transform="matrix(0.05,0,0,0.05,50.900000000000006,0)" xlink:href="#w"/><use transform="matrix(0.05,0,0,0.05,60.900000000000006,0)" xlink:href="#F"/><use transform="matrix(0.05,0,0,0.05,70.9,0)" xlink:href="#y"/><use transform="matrix(0.05,0,0,0.05,75.9,0)" xlink:href="#G"/></g><path fill="#2d6b75" d="M153-248C145-148 188 4 80 4 36 3 13-21 6-62l32-5c4 25 16 42 43 43 27 0 39-20 39-49v-147H72v-28h81" id="H"/><path fill="#2d6b75" d="M185-189c-5-48-123-54-124 2 14 75 158 14 163 119 3 78-121 87-175 55-17-10-28-26-33-46l33-7c5 56 141 63 141-1 0-78-155-14-162-118-5-82 145-84 179-34 5 7 8 16 11 25" id="I"/><path fill="#2d6b75" d="M140-251c81 0 123 46 123 126C263-46 219 4 140 4 59 4 17-45 17-125s42-126 123-126zm0 227c63 0 89-41 89-101s-29-99-89-99c-61 0-89 39-89 99S79-25 140-24" id="J"/><path fill="#2d6b75" d="M190 0L58-211 59 0H30v-248h39L202-35l-2-213h31V0h-41" id="K"/><g id="d"><use transform="matrix(0.05,0,0,0.05,0,0)" xlink:href="#H"/><use transform="matrix(0.05,0,0,0.05,9,0)" xlink:href="#I"/><use transform="matrix(0.05,0,0,0.05,21,0)" xlink:href="#J"/><use transform="matrix(0.05,0,0,0.05,35,0)" xlink:href="#K"/></g><path fill="#2d6b75" d="M101-234c-31-9-42 10-38 44h38v23H63V0H32v-167H5v-23h27c-7-52 17-82 69-68v24" id="L"/><path fill="#2d6b75" d="M24-231v-30h32v30H24zM24 0v-190h32V0H24" id="M"/><path fill="#2d6b75" d="M24 0v-261h32V0H24" id="N"/><g id="e"><use transform="matrix(0.05,0,0,0.05,0,0)" xlink:href="#L"/><use transform="matrix(0.05,0,0,0.05,5,0)" xlink:href="#M"/><use transform="matrix(0.05,0,0,0.05,8.95,0)" xlink:href="#N"/><use transform="matrix(0.05,0,0,0.05,12.899999999999999,0)" xlink:href="#w"/></g><path fill="#2d6b75" d="M233-177c-1 41-23 64-60 70L243 0h-38l-65-103H63V0H30v-248c88 3 205-21 203 71zM63-129c60-2 137 13 137-47 0-61-80-42-137-45v92" id="O"/><g id="f"><use transform="matrix(0.05,0,0,0.05,0,0)" xlink:href="#O"/><use transform="matrix(0.05,0,0,0.05,12.950000000000001,0)" xlink:href="#D"/><use transform="matrix(0.05,0,0,0.05,22.950000000000003,0)" xlink:href="#F"/></g><path fill="#2d6b75" d="M96-169c-40 0-48 33-48 73s9 75 48 75c24 0 41-14 43-38l32 2c-6 37-31 61-74 61-59 0-76-41-82-99-10-93 101-131 147-64 4 7 5 14 7 22l-32 3c-4-21-16-35-41-35" id="P"/><g id="g"><use transform="matrix(0.05,0,0,0.05,0,0)" xlink:href="#z"/><use transform="matrix(0.05,0,0,0.05,12.950000000000001,0)" xlink:href="#x"/><use transform="matrix(0.05,0,0,0.05,22.950000000000003,0)" xlink:href="#P"/><use transform="matrix(0.05,0,0,0.05,31.950000000000003,0)" xlink:href="#B"/><use transform="matrix(0.05,0,0,0.05,40.95,0)" xlink:href="#B"/><use transform="matrix(0.05,0,0,0.05,49.95,0)" xlink:href="#x"/></g><path fill="#2d6b75" d="M143 4C61 4 22-44 18-125c-5-107 100-154 193-111 17 8 29 25 37 43l-32 9c-13-25-37-40-76-40-61 0-88 39-88 99 0 61 29 100 91 101 35 0 62-11 79-27v-45h-74v-28h105v86C228-13 192 4 143 4" id="Q"/><path fill="#2d6b75" d="M85-194c31 0 48 13 60 33l-1-100h32l1 261h-30c-2-10 0-23-3-31C134-8 116 4 85 4 32 4 16-35 15-94c0-66 23-100 70-100zm9 24c-40 0-46 34-46 75 0 40 6 74 45 74 42 0 51-32 51-76 0-42-9-74-50-73" id="R"/><g id="h"><use transform="matrix(0.05,0,0,0.05,0,0)" xlink:href="#Q"/><use transform="matrix(0.05,0,0,0.05,14,0)" xlink:href="#v"/><use transform="matrix(0.05,0,0,0.05,19.95,0)" xlink:href="#x"/><use transform="matrix(0.05,0,0,0.05,29.950000000000003,0)" xlink:href="#R"/><use transform="matrix(0.05,0,0,0.05,39.95,0)" xlink:href="#N"/><use transform="matrix(0.05,0,0,0.05,43.900000000000006,0)" xlink:href="#w"/></g><path fill="#2d6b75" d="M30-248c87 1 191-15 191 75 0 78-77 80-158 76V0H30v-248zm33 125c57 0 124 11 124-50 0-59-68-47-124-48v98" id="S"/><path fill="#2d6b75" d="M24-231v-30h32v30H24zM-9 49c24 4 33-6 33-30v-209h32V24c2 40-23 58-65 49V49" id="T"/><g id="i"><use transform="matrix(0.05,0,0,0.05,0,0)" xlink:href="#S"/><use transform="matrix(0.05,0,0,0.05,12,0)" xlink:href="#v"/><use transform="matrix(0.05,0,0,0.05,17.95,0)" xlink:href="#A"/><use transform="matrix(0.05,0,0,0.05,27.950000000000003,0)" xlink:href="#T"/><use transform="matrix(0.05,0,0,0.05,31.899999999999995,0)" xlink:href="#w"/><use transform="matrix(0.05,0,0,0.05,41.9,0)" xlink:href="#P"/><use transform="matrix(0.05,0,0,0.05,50.9,0)" xlink:href="#y"/></g><path fill="#2d6b75" d="M115-194c53 0 69 39 70 98 0 66-23 100-70 100C84 3 66-7 56-30L54 0H23l1-261h32v101c10-23 28-34 59-34zm-8 174c40 0 45-34 45-75 0-40-5-75-45-74-42 0-51 32-51 76 0 43 10 73 51 73" id="U"/><path fill="#2d6b75" d="M106-169C34-169 62-67 57 0H25v-261h32l-1 103c12-21 28-36 61-36 89 0 53 116 60 194h-32v-121c2-32-8-49-39-48" id="V"/><g id="j"><use transform="matrix(0.05,0,0,0.05,0,0)" xlink:href="#S"/><use transform="matrix(0.05,0,0,0.05,12,0)" xlink:href="#D"/><use transform="matrix(0.05,0,0,0.05,22,0)" xlink:href="#U"/><use transform="matrix(0.05,0,0,0.05,32,0)" xlink:href="#N"/><use transform="matrix(0.05,0,0,0.05,35.95,0)" xlink:href="#M"/><use transform="matrix(0.05,0,0,0.05,39.900000000000006,0)" xlink:href="#G"/><use transform="matrix(0.05,0,0,0.05,48.900000000000006,0)" xlink:href="#V"/></g><path fill="#2d6b75" d="M115-194c55 1 70 41 70 98S169 2 115 4C84 4 66-9 55-30l1 105H24l-1-265h31l2 30c10-21 28-34 59-34zm-8 174c40 0 45-34 45-75s-6-73-45-74c-42 0-51 32-51 76 0 43 10 73 51 73" id="W"/><g id="k"><use transform="matrix(0.05,0,0,0.05,0,0)" xlink:href="#A"/><use transform="matrix(0.05,0,0,0.05,10,0)" xlink:href="#D"/><use transform="matrix(0.05,0,0,0.05,20,0)" xlink:href="#y"/><use transform="matrix(0.05,0,0,0.05,25,0)" xlink:href="#W"/><use transform="matrix(0.05,0,0,0.05,35,0)" xlink:href="#D"/><use transform="matrix(0.05,0,0,0.05,45,0)" xlink:href="#y"/></g><g id="l"><use transform="matrix(0.05,0,0,0.05,0,0)" xlink:href="#L"/><use transform="matrix(0.05,0,0,0.05,5,0)" xlink:href="#A"/><use transform="matrix(0.05,0,0,0.05,15,0)" xlink:href="#N"/><use transform="matrix(0.05,0,0,0.05,18.95,0)" xlink:href="#R"/><use transform="matrix(0.05,0,0,0.05,28.950000000000003,0)" xlink:href="#w"/><use transform="matrix(0.05,0,0,0.05,38.95,0)" xlink:href="#v"/></g><g id="m"><use transform="matrix(0.05,0,0,0.05,0,0)" xlink:href="#z"/><use transform="matrix(0.05,0,0,0.05,12.950000000000001,0)" xlink:href="#x"/><use transform="matrix(0.05,0,0,0.05,22.950000000000003,0)" xlink:href="#y"/><use transform="matrix(0.05,0,0,0.05,27.950000000000003,0)" xlink:href="#x"/></g><g id="n"><use transform="matrix(0.05,0,0,0.05,0,0)" xlink:href="#F"/><use transform="matrix(0.05,0,0,0.05,10,0)" xlink:href="#w"/><use transform="matrix(0.05,0,0,0.05,20,0)" xlink:href="#w"/><use transform="matrix(0.05,0,0,0.05,30,0)" xlink:href="#R"/><use transform="matrix(0.05,0,0,0.05,40,0)" xlink:href="#w"/><use transform="matrix(0.05,0,0,0.05,50,0)" xlink:href="#R"/></g><path fill="#2d6b75" d="M179-190L93 31C79 59 56 82 12 73V49c39 6 53-20 64-50L1-190h34L92-34l54-156h33" id="X"/><g id="o"><use transform="matrix(0.05,0,0,0.05,0,0)" xlink:href="#U"/><use transform="matrix(0.05,0,0,0.05,10,0)" xlink:href="#X"/></g><g id="p"><use transform="matrix(0.05,0,0,0.05,0,0)" xlink:href="#z"/><use transform="matrix(0.05,0,0,0.05,12.950000000000001,0)" xlink:href="#A"/><use transform="matrix(0.05,0,0,0.05,22.950000000000003,0)" xlink:href="#B"/><use transform="matrix(0.05,0,0,0.05,31.950000000000003,0)" xlink:href="#B"/><use transform="matrix(0.05,0,0,0.05,40.95,0)" xlink:href="#x"/></g><g id="q"><use transform="matrix(0.05,0,0,0.05,0,0)" xlink:href="#H"/><use transform="matrix(0.05,0,0,0.05,9,0)" xlink:href="#I"/><use transform="matrix(0.05,0,0,0.05,21,0)" xlink:href="#J"/><use transform="matrix(0.05,0,0,0.05,35,0)" xlink:href="#K"/></g><g id="r"><use transform="matrix(0.05,0,0,0.05,0,0)" xlink:href="#z"/><use transform="matrix(0.05,0,0,0.05,12.950000000000001,0)" xlink:href="#w"/><use transform="matrix(0.05,0,0,0.05,22.950000000000003,0)" xlink:href="#W"/><use transform="matrix(0.05,0,0,0.05,32.95,0)" xlink:href="#w"/><use transform="matrix(0.05,0,0,0.05,42.95,0)" xlink:href="#F"/><use transform="matrix(0.05,0,0,0.05,52.95,0)" xlink:href="#R"/><use transform="matrix(0.05,0,0,0.05,62.95,0)" xlink:href="#w"/><use transform="matrix(0.05,0,0,0.05,72.95,0)" xlink:href="#F"/><use transform="matrix(0.05,0,0,0.05,82.95,0)" xlink:href="#P"/><use transform="matrix(0.05,0,0,0.05,91.95,0)" xlink:href="#M"/><use transform="matrix(0.05,0,0,0.05,95.9,0)" xlink:href="#w"/><use transform="matrix(0.05,0,0,0.05,105.9,0)" xlink:href="#G"/></g><g id="s"><use transform="matrix(0.05,0,0,0.05,0,0)" xlink:href="#I"/><use transform="matrix(0.05,0,0,0.05,12,0)" xlink:href="#A"/><use transform="matrix(0.05,0,0,0.05,22,0)" xlink:href="#D"/><use transform="matrix(0.05,0,0,0.05,32,0)" xlink:href="#v"/><use transform="matrix(0.05,0,0,0.05,37.95,0)" xlink:href="#P"/><use transform="matrix(0.05,0,0,0.05,46.95,0)" xlink:href="#w"/></g><g id="t"><use transform="matrix(0.05,0,0,0.05,0,0)" xlink:href="#I"/><use transform="matrix(0.05,0,0,0.05,12,0)" xlink:href="#w"/><use transform="matrix(0.05,0,0,0.05,22,0)" xlink:href="#y"/><use transform="matrix(0.05,0,0,0.05,27,0)" xlink:href="#G"/></g></defs></g></svg>